<svg xmlns="http://www.w3.org/2000/svg" viewBox="0 0 512 512">
  <defs>
    <linearGradient id="bg" x1="0%" y1="0%" x2="100%" y2="100%">
      <stop offset="0%" stop-color="#0f172a" />
      <stop offset="100%" stop-color="#1e293b" />
    </linearGradient>
    <linearGradient id="accent" x1="0%" y1="100%" x2="100%" y2="0%">
      <stop offset="0%" stop-color="#3b82f6" />
      <stop offset="100%" stop-color="#8b5cf6" />
    </linearGradient>
  </defs>
  <!-- Background -->
  <rect width="512" height="512" rx="120" fill="url(#bg)" />
  <rect width="512" height="512" rx="120" fill="transparent" stroke="#334155" stroke-width="8" />
  
  <!-- Abstract 'S' Logo for Sudhii/SLM -->
  <path d="M336 176c0-26.5-21.5-48-48-48h-64c-26.5 0-48 21.5-48 48v24c0 26.5 21.5 48 48 48h64c26.5 0 48 21.5 48 48v40c0 26.5-21.5 48-48 48h-64c-26.5 0-48-21.5-48-48" fill="none" stroke="url(#accent)" stroke-width="48" stroke-linecap="round" stroke-linejoin="round" />
  
  <!-- Subtle Spark / Node -->
  <circle cx="360" cy="120" r="24" fill="#3b82f6" />
</svg>
